<svg id="Graphic_Elements" data-name="Graphic Elements" xmlns="http://www.w3.org/2000/svg" viewBox="0 0 1200 800"><path d="M665.19,527.69c3.53-3.39,6.64-7.26,10.72-10,.25,36.06,0,72.13.15,108.2,3.76.15,7.54.2,11.32.2.11,10.86-.53,13.18.89,15.67,4.08,7.79.85,9.77,2.25,27.51,4.81.06,9.62,0,14.44,0,.15-10.54-.11-21.08.13-31.63l5.42-.33c.11-1.81.21-3.62.35-5.42a84.83,84.83,0,0,1,10.21,0q.06-3.64.13-7.28l7.34-.2c.11-1.52.22-3,.35-4.53,3.17,0,6.49-.58,9.57.43,3.69,2.25,5.87,6.25,9.38,8.73,1.54.85,3.39.77,5.1,1.06.07,13-.12,26.08.08,39.11,4,0,8,0,12.06,0,.51-10.7,0-21.41.35-32.11,1.78-.1,3.58-.16,5.37-.25.2-1.38.41-2.75.62-4.12,3.15-.06,6.3-.05,9.47,0,.08,1.63.16,3.28.25,4.93l5.08.43c.09,5.73-.06,11.47.12,17.2,6.62-6,6.59-1.19,6-38.28a67.94,67.94,0,0,1,8.91.11c6.49.71,4,9.62,4.46,18.55-.19,4.35,5.89,5.54,5.69,10,.18,7.86-.07,15.74,0,23.61q5.9.07,11.79,0c.2-19.93,0-39.87.09-59.8,4.9-.09,9.8-.08,14.7,0,.14,8.83-.25,17.68.21,26.5l6.89.21c.09,3.6-.2,7.21.08,10.81.11,2.43,4.94,6.93,6.77,7.86,4,1.59,8.83-1.75,8.84-6,.17-3.92-.09-7.84,0-11.76q6.38-.1,12.76,0c0,3-.39,6.11.39,9.07,1.88,3.41,5.7,5.22,7.65,8.58.77,2,.66,4.29.83,6.44,5.63.14,11.27.12,16.92.08.11-7.42-.16-14.84.15-22.26,4.51-.08,9-.06,13.55-.11,0-5.2,0-10.4.05-15.59l4.81-.22c4.35-5.12,4.42-5,10.18-6.9a21.39,21.39,0,0,1,.55-2.76,18.66,18.66,0,0,1,3.19-1.42,116,116,0,0,1,2.83-19.09c-1.9-1.84-4-3.66-5-6.18a12.53,12.53,0,0,1,3.37-14.2,50.4,50.4,0,0,1,7.72-4.18c1.46-.85,3.08.07,4.56.36a112.92,112.92,0,0,1,14.71-17.29c0-3.39-.11-7.06,1.92-10,2.38-3.91,7-5.75,11.4-6.07,2.47-.09,4.53,1.55,6.62,2.65a85.1,85.1,0,0,1,23.8-7.38c6.6-.8,3.49-2.37,15-7.4,15.09,7,5.14,5.69,16.85,8.2a80.85,80.85,0,0,1,19,6.48c3.13,1.72,5.72-1.53,8.45-2.58,10.13,4.55,12.1,7.7,12.58,14.79-.05,4.06,3.08,2.86,14.86,20q2.46-1.32,5-2.6c2.5,1.63,5.28,2.74,7.87,4.22,5.14,3.19,6.83,10.49,4.1,15.8-1.38,3-4.23,4.76-6.85,6.5.4,2,.82,3.93,1.25,5.9h3.52c.06-1.59.14-3.18.22-4.77h6.33c.1,1.21.2,2.42.33,3.63l4.08.34c.54,23.81-1,17.19,1.47,27.45.64,2.68-.11,5.4-.72,8,3.56,0,7.12,0,10.69,0,.36-3.87-1.25-8.67,1.84-11.73,2.76-3.14,7.33-1.8,11-2,.22,14.86-.31,33.46.4,40l3.76-.32c.09-2.37-.14-4.83.62-7.11,2.72-5.53,7.22-5,9.49-5.32.27-37.63-1.64-32.4,4.56-38.73,3.65-3.29,2.44-2.93,12.44-2.82.44,23-.22,55.78.45,62.7,4.79,0,9.59,0,14.38,0,.08-10.75-.06-21.48.07-32.23q6.62,0,13.25,0V800c-146.72.06-92,0-1200,0V669.37l4.22-.22c.16-12.26,0-24.52.09-36.78,1.33-.09,2.66-.19,4-.27.26-1.24.52-2.48.79-3.71q3.75,0,7.5,0c.18,13.65-.22,27.3.21,40.94l6.76-.14c.36-10.73.07-21.46.22-32.19,3.31,0,6.62,0,9.93,0,.11-10.75-.07-21.5.09-32.25l4.93-.27c.1-1.5.22-3,.32-4.5,3.54-.1,7.09-.07,10.63.07.11,1.33.22,2.66.34,4l3.12.36c.21,16.9-.11,33.81.16,50.71,5.67.23,11.35,0,17,.17,0,4.65,0,9.31.19,14q6.3.15,12.59.07c.14-11.52-.16-23,.18-34.55.69-.28,1.39-.55,2.09-.81l.27-4.67,4.42-.69c.1-1.63.18-3.24.28-4.85a94.56,94.56,0,0,1,10.1.09c.15,1.76.27,3.52.42,5.29.9.17,1.8.36,2.71.55.05,13.2-.09,26.4.05,39.6q10.63,0,21.24,0c.07-1.83.12-3.66.2-5.49l5-.45c.18-11.32.06-22.62,0-33.94,3.31-.07,6.63.19,9.92-.13,2.92-.35,4.2-3.7,6.93-4.45,3.23-.47,6.51-.17,9.76-.2.13,6.8,0,13.61.09,20.41,2.81,0,5.61,0,8.42,0,.13-6,0-12,.06-17.91,2.52-.08,5-.15,7.55-.21.08-1.26.17-2.52.25-3.77a96.26,96.26,0,0,1,12,0c.14,2,.28,4.07.44,6.11l4.88.34q.08,3.68.17,7.35l5.11.2c.13,6.11,0,12.22.07,18.33l4.5.22c.13,4.54.1,9.08.33,13.62,3.72,0,7.43,0,11.15-.07q.12-4.18.09-8.37l5.23-.16c.11-25.17,0-50.33,0-75.49l4.65-.47c.07-2,.15-4,.22-6.07,7.08-.17,14.16-.11,21.24,0,.09,25.3,0,50.61.05,75.91,5.35.12,10.72.11,16.08,0,.1-5.8-.13-11.6.19-17.4q5.61,0,11.22-.09c.11-10.87,0-21.76,0-32.63-.24-3.76,2.72-7.87,6.69-7.85,14.65-.36,12,0,16.33,4.17l6,.22c.11,8.75-.09,17.5.1,26.26l3.13.6c.28,5.72.12,11.47.18,17.2,3.58.07,7.17,0,10.75-.11.2-6.76.1-82.86.06-89.25.27-9.84-1.93-4.11,14.92-21.73a34.06,34.06,0,0,1,5.74-4.85,88.65,88.65,0,0,1,0,11.64c5,.39,9.92.21,14.89.21.27,21.16,0,42.32.12,63.48,2.84.21,5.68.29,8.53.26.45-22.25-1.88-21.7,4.49-27,1.89-1.61,3.53-1,18.21-1.07.3,23.26,0,46.53.16,69.8q5.16,0,10.35.05c.14,7.56-.1,15.13.17,22.7,5.17.17,10.33.12,15.49.09.06-3.69.08-7.37.06-11.06a28.68,28.68,0,0,0,4.63-.54c1.91-.77,3.17-2.62,5.12-3.32a32.06,32.06,0,0,1,6.86-.35c.17-40.36-2.36-35,8.14-44.61,1.42-1.43,2.61-1.78,19.25-1.23.11,2.25.22,4.5.35,6.76,4.34.24,8.7.27,13.06.23.28,17.76-.2,35.52.24,53.27,12.67-11.31,10-8.7,10.36-21.86l5.28-.25c.65-8.77,0-17.54.12-26.32,1.44-.07,2.9-.15,4.35-.21l.24-4.56q5.13-.12,10.26,0c.1,1.53.2,3.07.31,4.61,2.2.08,4.4.16,6.6.26a27.22,27.22,0,0,0,.73,5.9c1.34,2.63,4.19,4.05,5.7,6.56.87,2.47.22,5.25,1.15,7.72,1.27,2.16,3.29,3.74,5,5.56,5.16,4.93,2.38,3.63,19.08,3.68q.06-4.53.09-9.06l4.58-.25c0-1.33,0-2.65.06-4q4.07,0,8.13.1c0,4.33-.06,8.68,0,13,3.48.05,7,0,10.44-.06.09-9.12-.06-18.24.07-27.36l4.51-.19c.1-1.72.19-3.43.3-5.14,3.41,0,6.83,0,10.24,0,.09,1.72.14,3.43.23,5.15l4.08.28c.09,15.47-.11,30.94.09,46.4,10.76-9.07,5.49-9,15.54-10.38q.09-4.28.16-8.53c1.86-.06,3.72-.1,5.59-.14.08-13.7-.07-27.39.06-41.08l3.64-.44q.12-4.63.2-9.26l2.76-.88c.08-3.44.12-6.88.16-10.32,3.2-.24,6.42-.31,9.63-.24.2,3.39.29,6.8.31,10.21l2.73.48c0,3.48,0,7,0,10.45l4.19.56c.06,2.68.12,5.37.16,8.06,1.27.1,2.55.19,3.83.31.7,6.63.33,29.29.32,29.76.11,7.66-.26,3.92,13.15,18.26,4.09,4,3.09,3.54,9.67,3.69.09-8.36.05-16.71,0-25.06.1-6.41,3.15-6.77,3-10.62-.41-97.72-.51-92,1.76-93.95,3.85-3.85,7.78-7.63,11.6-11.51m318.5,14.11c1.54,3.55.61,7.6,2.11,11.11,4.55,7.76,9,15.59,13.57,23.34a49.19,49.19,0,0,1,17.48-5c0-7.26,0-14.53,0-21.8-7-2.5-10.21-5-10.8-14.31a83.83,83.83,0,0,0-22.35,6.66m-315.51-6c-1.31,1.1-1.18,4.53,1.14,4.27,1,0,2.46.28,3.08-.8.17-1.15.44-2.68-.58-3.51a8.28,8.28,0,0,0-3.64,0m363.27-.21c-.78,7.49-2.43,11.12-10.79,13.88-.07,7.24,0,14.48,0,21.73a49.75,49.75,0,0,1,17.94,4.33c21-35.9,7.68-16.12,13.87-33.11a80.07,80.07,0,0,0-21-6.83m-363.24,9.56a3,3,0,0,0,0,4.12c1.34.16,3.22.64,4.2-.59a7.56,7.56,0,0,0,0-3c-1.06-1.12-2.84-.77-4.19-.57M319.58,549.7a1.91,1.91,0,0,0,0,3.14c1.6.37,1.09.36,21.64.31,1.16-.14,2.6.1,3.51-.8,2.08-4.25-5.41-2.73-16-3-3.06.08-6.17-.35-9.18.33m348.66,5.44c-1.25.68-.72,2.4-.65,3.55,1,1.08,2.8.78,4.15.54,1.27-.66.71-2.41.69-3.56-1.13-1-2.83-.82-4.19-.53m304.89,5.46c-4.09.39-7.72-1.9-10.63-4.51a85.15,85.15,0,0,0-12.9,15.43c4,2.63,29.16,17.06,33.84,19.65a49.53,49.53,0,0,1,12.66-13c-4.35-7.57-8.75-15.11-13.1-22.67-2.71,2.59-5.94,5.08-9.87,5.1m100.23-3.68c-6.66,6.72-13.31,6.47-20,.63-3.8,6.59-7.67,13.15-11.42,19.77a51.28,51.28,0,0,1,13.64,13.08c10.19-5.9,20.43-11.73,30.56-17.74a82.11,82.11,0,0,0-12.74-15.74m-753.77,2.75a1.91,1.91,0,0,0,0,3.14,22.86,22.86,0,0,0,5.42.35c15.27-.28,18.25.56,19.78-.82,1.49-4.29-4.34-2.68-14.15-3-3.68.11-7.42-.38-11.05.29m348.65,5.46c-1.41,1.06-1.22,4.6,1.12,4.29,1,0,2.39.24,3-.78a6.75,6.75,0,0,0,0-2.9c-.92-1.27-2.83-.77-4.14-.61m-348.67,5.19c-1.23.69-1,3,.45,3.23,2.48.31,21.27.3,23.72,0,1.62-.24,1.67-3.18,0-3.35-4.34-.53-8.73-.06-13.09-.2-3.67.14-7.42-.41-11,.32m681.12,8.07c5.2,9.41,10.72,18.66,16.11,28,.15-10.86.07-21.72,0-32.59a47.86,47.86,0,0,0-16.15,4.62m20-4.69c0,10.89-.09,21.79,0,32.68,5.56-9.49,11-19,16.55-28.53a41.34,41.34,0,0,0-16.59-4.15m-352.4.84c-1.26.73-1.12,3.18-.06,4.06,1.35.19,3.22.64,4.22-.58.15-1.17.43-2.68-.57-3.53a7.51,7.51,0,0,0-3.59,0m285.14,3.64c1.62,8.81-2.83,15.9-13.93,16.39a88,88,0,0,0-2.57,17.9q20,.07,39.92,0a52.74,52.74,0,0,1,4.58-18c-9.3-5.48-18.7-10.8-28-16.27m104.08,15.52a48.25,48.25,0,0,1,5.08,18.78q17.78,0,35.56,0a88.43,88.43,0,0,0-2.57-17.88c-9.43-2.17-12.86-8-11.43-16.42-8.85,5.22-17.82,10.24-26.64,15.52m-26.9,3.16c-2.17,3.82-4.56,7.52-6.44,11.5,3.14-1.46,27.73-15.83,29.11-16.64a41.53,41.53,0,0,0-12.63-12.13c-3.42,5.71-6.7,11.51-10,17.27m-711-15.92c-1.24.68-1.07,3,.43,3.23,2.46.32,21.24.32,23.74,0,1.64-.22,1.59-3.11,0-3.35-4.56-.51-9.17-.06-13.76-.2-3.46.12-7-.37-10.41.32m666.26,11.33c1.71,1.64,24,14.32,27.52,16.1-1.6-3.44-15.21-26.62-16-27.88a38.33,38.33,0,0,0-11.56,11.78m-616.26-8.82c-1.5,1.59-.92,4.34-.55,6.32,1.65,1.47,4.35,1,6.35.54,1.52-1.6.93-4.37.56-6.37-1.71-1.4-4.36-1-6.36-.49m-141.44.25c-1.12,2.67-.47-1.83-.68,83.82a9.54,9.54,0,0,0,.68,3.8c2.72.28,1.87,2.58,1.85-78.2-.08-6.44.63-9.6-1.85-9.42m4.95,0c-.86,2.46-.57-2.85-.61,84.44.14,1.2,0,3.69,1.86,3.1,1-2.16.6,2.79.67-84.3,0-1.35-.08-3.31-1.92-3.24m4.83,0c-.45,3.24-1,84.57.19,87.55,2.7.9,1.88-.89,1.88-44.34-.12-14.24.24-28.5-.18-42.74l-1.89-.47m430.26.22c-1.08.82-.73,2.38-.6,3.55.87,1.06,2.45.77,3.67.66,1.75-.19,1.34-2.35,1.1-3.56-.83-1.37-2.86-.75-4.17-.65m-348.62,7.7c-1.23.68-1,3.08.5,3.23,2.19.31,20.88.27,23.12.09a1.77,1.77,0,0,0,1.48-2.79c-.78-1.48-4-.57-19-.88a25.05,25.05,0,0,0-6.06.35m348.6,2.28c-1.23,1.2-1.19,4.55,1.15,4.31,1.65-.07,3.94.76,3.08-3.72-1.06-1.15-2.87-.74-4.23-.59m-298.61,1.47c-1.44,1.65-.9,4.34-.52,6.34,1.66,1.45,4.36,1,6.36.53,1.5-1.62.93-4.37.54-6.36-1.65-1.47-4.38-.93-6.38-.51m668.85,9.35c-4.09,2.43-8.35,4.59-12.25,7.32,5.65.79,31.65.5,33.87.48a45.2,45.2,0,0,0-4.72-17.48c-5.72,3.06-11.27,6.46-16.9,9.68m-59.07,7.8c.47,0,28.61.24,32.16-.37-3-2.13-25.42-15-27.79-16.28a43.48,43.48,0,0,0-4.37,16.65M604.39,600c0,2.29,0,4.59,0,6.88h1.22c0-2.29,0-4.59,0-6.88h-1.22m2.49,0c0,2.27,0,4.56,0,6.84h1.24q0-3.45,0-6.9l-1.23.06m2.51,0c0,2.29,0,4.58,0,6.88h1.24q0-3.45,0-6.88h-1.22m2.49,0c0,2.29,0,4.58,0,6.87h1.22q0-3.43,0-6.87h-1.23m2.51,0c0,2.3,0,4.6,0,6.9h1.22q0-3.43,0-6.85l-1.24-.06m-294.82,2.85c-1.17.71-1.1,3,.42,3.22,3.94.53,7.93.08,11.9.2,7.15-.21,14.95,1.2,12.84-2.85-.84-1.51-4.27-.64-18.5-.92a29.06,29.06,0,0,0-6.66.35m348.58,1c-1.21,1.23-1.16,4.55,1.19,4.3,1,0,2.4.23,3.06-.78a6.6,6.6,0,0,0,0-2.9c-.93-1.3-2.88-.73-4.22-.62m435-.11c0,1.66,0,3.31,0,5h5c0-1.68,0-3.35,0-5l-5,0M275,605c0,1.21,0,2.44,0,3.67l3.68,0V605c-1.23,0-2.45,0-3.67,0m5.61,0c0,1.22,0,2.45,0,3.68,1.23,0,2.46,0,3.69,0,0-1.23,0-2.46,0-3.68-1.24,0-2.47,0-3.69,0m5.63,0c0,1.21,0,2.44,0,3.67H290c0-1.24,0-2.47,0-3.7-1.23,0-2.45,0-3.68,0m5.61,0c0,1.23,0,2.45,0,3.69h3.67V605l-3.7,0M45.7,607c-1.19,1-.76,2.8-.56,4.13.88,1.28,2.82.74,4.14.61,1.21-1,.77-2.81.58-4.13-.9-1.3-2.83-.77-4.16-.61m323.86.79c-1.35,1.8-1.14,4.69-.25,6.66,1.78,1,4.19.65,6.15.24,1.35-1.75.92-4.34.48-6.35-1.64-1.51-4.38-.93-6.38-.55M1015.1,610c-1.52,2.54-.92,5.42-.07,8.07l2.08.36v-6q2.92-.09,5.89-.13c-.22-.75-.46-1.51-.65-2.25a10.87,10.87,0,0,0-7.25,0m-414.46,0c0,2.3,0,4.61,0,6.91l1.23-.06c0-2.28,0-4.57,0-6.84h-1.22m2.49,0q0,3.43,0,6.87l1.23,0q0-3.46,0-6.9h-1.23m2.49,0q0,3.42,0,6.86h1.22q0-3.45,0-6.89l-1.24,0m2.51,0q0,3.42,0,6.85l1.22,0q0-3.45,0-6.9l-1.23,0m2.51,0q0,3.43,0,6.89l1.23,0q0-3.43,0-6.86h-1.22m2.5,0c0,2.29,0,4.58,0,6.88l1.24,0c0-2.29,0-4.58,0-6.87h-1.22m2.49,0q0,3.4,0,6.84l1.25,0q0-3.46,0-6.91l-1.23,0m2.5,0c0,2.29,0,4.59,0,6.88h1.23q0-3.45,0-6.88h-1.23m-343.08.64c0,1.23,0,2.46,0,3.7h3.7c0-1.24,0-2.46,0-3.68l-3.66,0m5.6,0v3.68h3.69c0-1.24,0-2.46,0-3.69h-3.7m5.66,0c0,1.23,0,2.46,0,3.7H290c0-1.23,0-2.45,0-3.67l-3.66,0m5.6,0c0,1.22,0,2.44,0,3.67h3.71c0-1.24,0-2.47,0-3.69h-3.68m811.21.59c0,1.66,0,3.33,0,5h5c0-1.66,0-3.33,0-5h-5m-1057.4,2c-1.27.9-.73,2.82-.6,4.15,1,1.15,2.8.77,4.13.58,1.27-.91.77-2.82.63-4.14-1-1.25-2.83-.79-4.16-.59m622.55,0c-1.25.73-1.18,3.24-.06,4.08,1.34.2,3.22.65,4.19-.59a7.13,7.13,0,0,0,0-2.91c-.95-1.21-2.8-.81-4.12-.58m158.6-.15c0,1.25,0,2.5,0,3.77,1.23,0,2.48,0,3.74,0,0-1.26,0-2.51,0-3.75h-3.75m-507.31,1c-1.22.67-1,3,.44,3.24,4.15.48,8.34.07,12.5.18,6.07-.17,14.76,1.11,12.2-2.89-.87-1.47-4.63-.6-18.46-.88a28.68,28.68,0,0,0-6.68.35m843.56-.32c0,1.66,0,3.32,0,5h5c0-1.67,0-3.33,0-5h-5M275,616.28c0,1.22,0,2.44,0,3.67l3.67,0c0-1.24,0-2.47,0-3.69-1.23,0-2.46,0-3.69,0m5.62,0c0,1.22,0,2.45,0,3.68h3.67v-3.7c-1.24,0-2.47,0-3.69,0m5.62,0c0,1.22,0,2.44,0,3.67,1.22,0,2.46,0,3.7,0,0-1.25,0-2.48,0-3.7-1.23,0-2.45,0-3.68,0m5.64,0c0,1.23,0,2.47,0,3.71l3.66,0,0-3.66-3.7,0m644.63,0c.79,4.74,8.46,7.88,4,18-1.24,2.5.15,5.14.83,7.57,1.63-1.58,3-3.55,5-4.7,3.26-.6,6.61.23,9.88-.38,1.85-.94,3.12-2.66,4.59-4.09,3.52,0,7,0,10.57,0,.07,2.22.11,4.45.14,6.68,3.33-1.81,6.62-3.73,9.88-5.69a53.37,53.37,0,0,1-4.55-17.39c-13.43,0-26.87-.08-40.3,0m42.83,0a44.33,44.33,0,0,0,4.32,16c2.29-1.25,24-13.66,27.32-16-10.55-.17-21.1-.08-31.64,0m49.65.05a5.89,5.89,0,0,0,3.47,3.76c6.33,3.47,12.45,7.3,18.81,10.73,0-3,.07-6,.07-9,2.63,0,5.27-.07,7.91-.08.24-1.82.49-3.62.74-5.43-10.33,0-20.67-.14-31,.05m33.47-.07q-.32,2.7-.6,5.4l5.45.24c.26,6-.28,12.06.22,18.06,1.11,1.17,20.47,12.18,21.22,12.6,2.59-5.19,5.33-10.55,6.23-16.32-.89-3.35-2.69-6.7-1.59-10.25.52-3.82,4.35-5.94,5-9.7-12-.12-24,0-35.93,0m-235.62,2.47v3.76h3.75v-3.75h-3.75m276.25,0c0,1.66,0,3.32,0,5h5c0-1.67,0-3.34,0-5h-5m-1057.37.77c-1.32.84-.75,2.82-.62,4.14,1.15,1.3,3.24.43,4.79.65a29.54,29.54,0,0,0-.06-4.21c-.92-1.25-2.8-.78-4.11-.58m383.13,0c-1.16.58-1.12,3.17-.1,4.11,1.38.17,3.17.55,4.26-.56.07-1.17.55-2.83-.64-3.55a7.61,7.61,0,0,0-3.52,0m5.9.2c.34,1.25-.14,3,1,3.91a7.58,7.58,0,0,0,3.48,0c1.22-.69.74-2.38.65-3.52-1.28-1.44-3.47-.4-5.12-.37m7.41-.5c0,1.42-.95,3.37.4,4.4,1.35.17,3.18.6,4.18-.6.1-1.11.57-2.75-.6-3.44a28,28,0,0,0-4-.36m-72.6,1.08c-1.47,1.68-.94,4.39-.54,6.42a6.72,6.72,0,0,0,6.91,0c.42-2,.73-4.33-.27-6.16-1.8-1-4.16-.7-6.1-.24m627,9,6,.15c.15,2.74.29,5.48.5,8.23,3.46-5.92,7.14-11.72,10.17-17.88-5.75,2.84-11.18,6.27-16.7,9.5m-721.6-8V625c1.24,0,2.47,0,3.7,0v-3.68H275m5.63,0c0,1.22,0,2.45,0,3.68h3.68v-3.7c-1.24,0-2.47,0-3.69,0m5.62,0c0,1.21,0,2.44,0,3.67l3.66,0c0-1.25,0-2.48,0-3.7h-3.71m5.65,0c0,1.22,0,2.45,0,3.69h3.69v-3.69h-3.67m307.45,0c0,1.24,0,2.49,0,3.74h3.75v-3.75h-3.75m5.64,0c0,1.25,0,2.5,0,3.76h3.76q0-1.89,0-3.75H605m5.61,0V625h3.75v-3.75h-3.75m5.63,0q0,1.86,0,3.75H620q0-1.87,0-3.75h-3.75m5.62,0c0,1.24,0,2.49,0,3.74h3.8q0-1.89,0-3.75c-1.27,0-2.52,0-3.77,0m541.25,0c0,1.66,0,3.33,0,5h5q0-2.52,0-5h-5m-158.33,21.1c-1.57,2.4-2.61,5.34-1.75,8.19,3.18,2.07,7.05,2.6,10.69,3.41.19-14.2.29-7.53,2.91-13.42.51-2,.18-17.44.13-18.44-4.27,6.58-7.88,13.57-12,20.26m24.65-19.76c0,8.5-.76,5.24,5,15.38,2.51.13,9.4-.91,10.55,7.5,2.7-2.73,7.31-5.3,6.29-9.81-1.16-1.28-.27-.61-21.85-13.07m-361.26.65a3.06,3.06,0,0,0,0,4.14c1.36.15,3.22.61,4.22-.61a7.7,7.7,0,0,0,0-2.95c-1-1.16-2.86-.75-4.22-.58M319.62,624.7c-.86.31-.91,1.34-.78,2.12.61,1.76,2.84,1.13,4.28,1.34,6.68-.16,13.38.16,20.06-.14,2,.3,2.5-3.15.56-3.44-2.54-.3-21.58-.42-24.12.12m507.26-.33c0,1.25,0,2.5,0,3.75h3.76c0-1.26,0-2.51,0-3.75h-3.74M45.05,625.71a20.14,20.14,0,0,0,.21,4.59,6.71,6.71,0,0,0,4,.17c1.32-.85.74-2.83.62-4.13-1.15-1.33-3.26-.43-4.82-.63m383.8,0c-1.35,1.06-1.23,4.55,1.08,4.29,1,0,2.41.24,3.09-.75a7.1,7.1,0,0,0,0-2.94c-.95-1.23-2.84-.77-4.17-.6m6.82,0c-1,.87-.76,2.39-.56,3.56.95,1.22,2.81.77,4.15.59,1.12-.91.6-2.66.95-3.9a17.33,17.33,0,0,0-4.54-.25m6.95,0c-1.41,1-1.23,4.58,1.07,4.28,1.69-.1,3.87.79,3.1-3.72-1.06-1.11-2.82-.81-4.17-.56m612.38.48c0,1.25,0,2.5,0,3.75h3.76q0-1.89,0-3.75H1055m5.62,0c0,1.24,0,2.49,0,3.75h3.74q0-1.89,0-3.75h-3.75m42.5,0c0,1.67,0,3.34,0,5h5c0-1.67,0-3.34,0-5h-5M275,626.9c0,1.23,0,2.46,0,3.69h3.68c0-1.23,0-2.45,0-3.68H275m5.63,0v3.69h3.69v-3.68h-3.69m5.64,0c0,1.23,0,2.46,0,3.71H290c0-1.23,0-2.46,0-3.68l-3.7,0m5.62,0c0,1.23,0,2.46,0,3.7h3.67V626.9h-3.68m624.47.73c-1.22.82-1.17,3.23,0,4.11,1.32.16,3.21.63,4.16-.6a7.91,7.91,0,0,0,0-2.95c-1-1.12-2.83-.8-4.16-.56m7.5,0c-1.16.66-1.22,3.27,0,4.08,1.34.21,3.14.57,4.18-.56a7.51,7.51,0,0,0,0-2.95c-1-1.23-2.82-.82-4.13-.57m-364.51,1.09c0,2.09,0,4.17,0,6.26,1,0,2.06,0,3.11,0,0-2.1,0-4.18,0-6.26h-3.12m4.38,0q0,3.12,0,6.25h3.12q0-3.13,0-6.25h-3.11m4.38,0q0,3.12,0,6.25h3.12c0-2.09,0-4.18,0-6.25h-3.11m4.38,0c0,2.08,0,4.16,0,6.26h3.12v-6.25h-3.11m590.62,0c0,1.65,0,3.32,0,5h5c0-1.67,0-3.34,0-5h-5M826.88,630c0,1.25,0,2.5,0,3.75h3.75c0-1.25,0-2.5,0-3.74l-3.75,0M45.72,632c-1.27.88-.75,2.81-.58,4.12.9,1.26,2.81.76,4.12.6,1.27-.92.76-2.83.6-4.15-.92-1.24-2.82-.76-4.14-.57m323.85.14c-1.1,1-.85,2.73-.89,4.09.11,1,0,2.7,1.36,2.94,1.82.31,4,.56,5.66-.35a7.89,7.89,0,0,0,0-6.42c-1.82-1-4.18-.69-6.14-.26m58.33.07c.32,1.26-.1,2.93,1,3.9,5.16,1.1,4.4-1.53,4.12-3.5-1.1-1.58-3.46-.38-5.08-.4m7.42-.51c0,1.42-1,3.4.4,4.41,1.33.15,3.23.62,4.17-.63a7.46,7.46,0,0,0,0-2.94c-1.23-1.08-3.09-.57-4.58-.84m7.26.3c-1.17.91-1,3.1,0,4.12,1.35.12,3.22.6,4.22-.6a8.13,8.13,0,0,0,0-3c-1.08-1.1-2.85-.77-4.21-.53m285.64,0c-1.21.88-1,3.09-.07,4.13,1.38.16,3.15.53,4.27-.55a8.56,8.56,0,0,0,0-3c-1-1.14-2.83-.77-4.17-.55m7.53,0c-1.26.64-.75,2.37-.65,3.51,1,1.22,2.85.73,4.22.6,1-.83.74-2.37.58-3.51-.95-1.24-2.83-.82-4.15-.6m6.89,0c-1.17.59-1.18,3.21-.07,4.09,1.33.12,3.28.65,4.2-.63.14-1.15.52-2.78-.63-3.5a7,7,0,0,0-3.5,0m312.36-.17c0,1.25,0,2.5,0,3.76l3.75,0c0-1.25,0-2.49,0-3.74H1055m5.62,0c0,1.25,0,2.5,0,3.76h3.72c0-1.26,0-2.51,0-3.76h-3.76m-970,.67v3.66l3.69,0v-3.7l-3.69,0m5.63,0c0,1.22,0,2.45,0,3.68H100c0-1.24,0-2.47,0-3.7l-3.66,0m178.74,0c0,1.22,0,2.45,0,3.69l3.68,0c0-1.23,0-2.46,0-3.68-1.23,0-2.47,0-3.7,0m5.63,0v3.68h3.68c0-1.23,0-2.45,0-3.67l-3.72,0m5.64,0c0,1.23,0,2.46,0,3.7H290c0-1.24,0-2.47,0-3.69h-3.67m5.61,0c0,1.22,0,2.45,0,3.68h3.67c0-1.24,0-2.47,0-3.7-1.23,0-2.46,0-3.68,0m694.71,2.71,4.41-.18c0-.87,0-1.74,0-2.61-1.48.89-2.94,1.81-4.36,2.79m-504.1-2.13c0,2.08,0,4.17,0,6.25h3.1q0-3.14,0-6.26h-3.11m4.38,0q0,3.14,0,6.27H490c0-2.08,0-4.17,0-6.25h-3.1m4.36,0c0,2.08,0,4.17,0,6.25h3.11v-6.26h-3.12m4.39,0c0,2.08,0,4.17,0,6.25h3.13c0-2.08,0-4.17,0-6.25h-3.1m4.36,0q0,3.12,0,6.24l3.13,0c0-2.09,0-4.17,0-6.25-1,0-2.08,0-3.11,0m4.38,0q0,3.12,0,6.27c1,0,2.06,0,3.1,0,0-2.08,0-4.17,0-6.25h-3.11m598.75.62c0,1.67,0,3.34,0,5h5c0-1.67,0-3.33,0-5h-5M995,634.51a3,3,0,0,0,.07,4.11c1.33.2,3.13.55,4.19-.55a8.18,8.18,0,0,0,0-3c-1-1.26-2.9-.76-4.26-.6m-78.66.63c-1.41,1-1.2,4.59,1.09,4.28,1,0,2.39.25,3-.75a7.72,7.72,0,0,0,0-3c-1.06-1.11-2.84-.79-4.18-.54m7.45,0c-1.25,1.17-1.22,4.53,1.11,4.3,1,0,2.47.32,3.09-.77.16-1.15.51-2.74-.59-3.51a8.45,8.45,0,0,0-3.61,0M319.64,636c-1.37.42-1.07,3,.36,3.21,2.45.31,21.28.3,23.72,0,1.92-.27,1.51-3.73-.5-3.43-5-.35-10.07,0-15.11-.12-2.82.07-5.71-.35-8.47.35m507.24-.35c0,1.25,0,2.49,0,3.75h3.75v-3.75h-3.74m336.23.63c0,1.67,0,3.33,0,5h5c0-1.67,0-3.34,0-5h-5M1055,637.49c0,1.25,0,2.5,0,3.76h3.75q0-1.89,0-3.75H1055m5.62,0c0,1.25,0,2.5,0,3.75h3.72c0-1.26,0-2.51,0-3.76h-3.75m-1014.85.78c-1.38.79-.74,2.83-.65,4.15,1,1.17,2.83.73,4.17.57,1.2-1,.73-2.87.59-4.23-1.06-1-2.79-.77-4.11-.49m44.87-.11c0,1.22,0,2.45,0,3.68h3.67c0-1.23,0-2.46,0-3.69l-3.71,0m5.65,0c0,1.22,0,2.45,0,3.69H100c0-1.24,0-2.46,0-3.69H96.29m178.75,0c0,1.23,0,2.46,0,3.7h3.68c0-1.23,0-2.46,0-3.68l-3.69,0m5.62,0v3.7h3.68v-3.69h-3.68m5.61,0c0,1.21,0,2.44,0,3.66H290c0-1.24,0-2.48,0-3.7-1.23,0-2.46,0-3.68,0m5.63,0c0,1.22,0,2.45,0,3.68h3.69c0-1.24,0-2.47,0-3.7-1.23,0-2.46,0-3.68,0m679.59,5.68c0,4.68,0,9.35,0,14,3.46,0,6.92,0,10.4,0,.18-6.69.11-13.39,0-20.08q-5.31,2.85-10.43,6m-412.1-5.11c0,2.08,0,4.17,0,6.26h3.13q0-3.13,0-6.25h-3.1m4.36,0q0,3.12,0,6.25h3.11q0-3.12,0-6.26h-3.12m4.38,0c0,2.08,0,4.15,0,6.24,1,0,2.07,0,3.12,0q0-3.13,0-6.27h-3.11m4.38,0q0,3.12,0,6.25h3.1q0-3.12,0-6.26h-3.11m155.76.76c-1.28.66-.75,2.39-.7,3.56,1.09,1,2.83.8,4.19.53,1.27-.68.66-2.45.66-3.6-1.15-1-2.81-.79-4.15-.49m7.45,0c-1.28.8-.77,2.67-.43,3.89,1.41.43,3.5.9,4.6-.38a6.8,6.8,0,0,0,0-2.91c-.92-1.28-2.85-.78-4.17-.6m6.87,0c-1.37,1-1.17,4.6,1.13,4.28,1,0,2.42.28,3-.78a7.18,7.18,0,0,0,0-2.92c-1-1.2-2.86-.79-4.19-.58m244.41,0c-1.47.93-1.19,4.59,1.12,4.26,1,0,2.42.26,3-.81a6.73,6.73,0,0,0,0-2.86c-.93-1.25-2.84-.82-4.15-.59m-544.42.61a2.91,2.91,0,0,0,0,4.1c1.36.2,3.17.59,4.21-.58a7.46,7.46,0,0,0,0-2.94c-.95-1.23-2.84-.77-4.17-.58m6.88,0c-1.16.93-1.31,4,.58,4.22,1.19.1,2.71.34,3.62-.66a5.08,5.08,0,0,0-.28-3.36,6.19,6.19,0,0,0-3.92-.2m6.86,0c-1.19.94-.75,2.72-.4,4a7.93,7.93,0,0,0,4,.14c1.17-.77.68-2.43.65-3.59-1.16-1-2.86-.77-4.24-.54m475.27,1q0,3.58,0,7.17h6.82c-1-2.81-2-5.6-2.92-8.39l-3.93,1.22m-160.81.28c-1.19.74-.63,2.43-.83,3.6.19,6.67-.18,13.36.17,20-.14,1.3,2,1.87,2.13.42.36-2.22.44-21-.06-23.88l-1-.41-.42.25m5,0c-1.11.7-.65.91-.77,21.75,0,1.27-.05,3.5,1.87,3.18,1.1-1.77.64-22.73.63-23.2.19-.86-.85-2.56-1.73-1.73m5-.25c-1,1.53-.69,3.42-.74,5.14.33,12.21-1,23,2.24,19.64.47-2.63.48-21.68,0-24.31l-1.5-.47m46.19.12c0,1.25,0,2.5,0,3.75h3.75c0-1.25,0-2.5,0-3.74l-3.75,0m272.22-.06a121.78,121.78,0,0,1-5.85,14,11.32,11.32,0,0,1,4.9,4.39l1,.47c.17-6.27.09-12.55-.1-18.82m4,.06c0,1.66,0,3.33,0,5h5c0-1.66,0-3.33,0-5l-5,0M916.35,642c-1.38,1.07-1.21,4.6,1.13,4.3,1,0,2.37.23,3-.76a6.69,6.69,0,0,0,0-2.92c-.89-1.3-2.83-.78-4.15-.62m7.49,0c-1.2.76-.7,2.44-.64,3.63a4.79,4.79,0,0,0,4.15.43c1.35-.53.72-2.37.65-3.48-1-1.24-2.84-.75-4.16-.58m71.25,0c-1,1-.65,2.63-.93,3.92a14.2,14.2,0,0,0,4.46.22c1.26-.68.7-2.43.68-3.6-1.15-1-2.84-.76-4.21-.54m49.55,7.06c0,2.93-.44,6.12,1.23,8.73s2.6,5.65,5.33,7.18c.31-7.3.13-14.6.11-21.89q-3.27,3.06-6.67,6m10.36-5.92c0,1.24,0,2.49,0,3.74l3.75,0c0-1.27,0-2.52,0-3.76H1055m5.63,0c0,1.25,0,2.5,0,3.76h3.75c0-1.26,0-2.5,0-3.75h-3.74m-970,.67c0,1.22,0,2.45,0,3.68h3.67c0-1.22,0-2.45,0-3.67H90.64m5.65,0c0,1.23,0,2.46,0,3.7H100v-3.67c-1.23,0-2.46,0-3.68,0m1066.83,0c0,1.67,0,3.34,0,5h5c0-1.66,0-3.33,0-5h-5m-1117.35.8c-1.1.32-.72,2.05-.82,3-.21,2.43,2.79,2,4.35,1.71,1.22-.93.73-2.81.55-4.12-.9-1.26-2.78-.78-4.08-.56m396.84,1.86c-1.21.78-1.14,3.24,0,4.09,1.33.17,3.19.62,4.16-.59a7.33,7.33,0,0,0,0-2.95c-1-1.18-2.84-.78-4.16-.55m6.84,0c-1.2.93-.75,2.71-.41,4,1.47.36,3.41.77,4.63-.39.09-1.17.49-2.78-.62-3.57a8.25,8.25,0,0,0-3.6,0m6.92,0c-1.21.84-1.12,3.19-.05,4.12,1.37.18,3.18.57,4.22-.59a8.23,8.23,0,0,0,0-3c-1-1.12-2.82-.79-4.16-.56m271.84,0c-1.37,1-1.17,4.55,1.11,4.27,1,0,2.43.27,3.07-.79a6.45,6.45,0,0,0,0-2.9c-.91-1.28-2.85-.76-4.16-.58m7.54,0c-1.25.66-.75,2.38-.66,3.53.87,1.08,2.47.75,3.7.67,1.76-.23,1.2-2.47,1.12-3.7-1.11-1-2.81-.79-4.16-.5m6.89,0c-1.24.7-.77,2.38-.68,3.54.88,1.06,2.45.77,3.68.67,1.78-.21,1.28-2.4,1.13-3.64-1-1.15-2.81-.8-4.13-.57m84.25.48c0,1.24,0,2.5,0,3.76h3.76c0-1.25,0-2.49,0-3.73l-3.74,0M987,647c-1.19.86-1.11,3.16-.05,4.11,1.34.15,3.24.65,4.21-.6a7,7,0,0,0,0-2.95c-1-1.2-2.83-.74-4.14-.56m-70.59,1.26c-1.27.64-.78,2.36-.65,3.5,1,1.25,2.85.73,4.22.61,1-.86.73-2.4.54-3.54-.93-1.23-2.81-.77-4.11-.57m7.47,0c-1.43,1-1.19,4.6,1.12,4.27,1.69-.11,3.75.82,3.08-3.74-1.1-1.07-2.85-.8-4.2-.53m-833.2.51c0,1.22,0,2.44,0,3.67,1.23,0,2.47,0,3.71,0,0-1.24,0-2.47,0-3.7H90.66m5.62,0c0,1.21,0,2.44,0,3.66,1.23,0,2.47,0,3.71,0l0-3.7c-1.22,0-2.45,0-3.67,0m898.83.1c-1.42,1-1.21,4.59,1.11,4.28,1,0,2.4.28,3-.76a7.06,7.06,0,0,0,0-2.93c-1-1.2-2.85-.82-4.18-.59m59.89-.15c0,1.25,0,2.5,0,3.76h3.73c0-1.25,0-2.5,0-3.74l-3.76,0m5.64,0c0,1.25,0,2.5,0,3.76h3.76c0-1.26,0-2.51,0-3.76h-3.72m42.48,0q0,2.49,0,5h5c0-1.67,0-3.33,0-5h-5m-35,1.26c0,1.87,0,3.75,0,5.63h5.62c0-1.88,0-3.75,0-5.62h-5.63m8-.31c0,6.7-.28,13.4.15,20.08,4.44-3.87,7.65-8.92,10.7-13.9-3.6-2.09-7.18-4.23-10.85-6.18M45.71,650.75a3.69,3.69,0,0,0,0,4.75c1.33.15,3.15.61,4.14-.56a8.5,8.5,0,0,0,0-3.62c-1-1.14-2.82-.77-4.18-.57m396.93,1.92c-1.18.67-1.42,4,.5,4.17,1.2.09,2.78.39,3.65-.67a7.47,7.47,0,0,0,0-3c-1-1.17-2.79-.77-4.11-.52m6.42-.32c-.11,1.48-.21,3-.29,4.45,1.6-.15,3.58.56,4.9-.6a8.17,8.17,0,0,0,0-3c-1.2-1.13-3.1-.57-4.58-.85m7.28.31c-1.12.51-.73,2-.7,2.93.2,1.81,2.46,1.31,3.73,1.25,1.79-.19,1.29-2.44,1.17-3.67-1.09-1.07-2.85-.8-4.2-.51m271.91,0c-1.43,1-1.22,4.6,1.08,4.27,1.46-.07,4.06.77,3.06-3.69-1-1.21-2.82-.79-4.14-.58m7.46,0c-1.34,1.07-1.22,4.53,1.1,4.27,1,0,2.41.25,3.09-.75a7.51,7.51,0,0,0,0-2.95c-1-1.21-2.85-.77-4.18-.57m6.93,0c-1.29.59-.77,2.34-.65,3.47.73,1.2,2.44.77,3.63.71,1.81-.17,1.28-2.36,1.16-3.6-1-1.2-2.82-.83-4.14-.58m84.24-.16c0,1.25,0,2.5,0,3.76h3.75c0-1.26,0-2.5,0-3.74l-3.75,0M987,653.88c-1.24.81-1.17,3.21-.06,4.12,1.33.15,3.23.64,4.17-.61a7.66,7.66,0,0,0,0-2.94c-1-1.13-2.81-.81-4.14-.57m15.78-.21c0,1.38,0,2.77,0,4.16,10.87.09,9,.4,11.4-1.07-3.84-.92-7.67-1.89-11.43-3.09m-912.15.73c0,1.23,0,2.45,0,3.69h3.67c0-1.23,0-2.47,0-3.7H90.65m5.64,0c0,1.22,0,2.45,0,3.69H100v-3.67c-1.23,0-2.46,0-3.68,0m820.1.11c-1.26.64-.78,2.36-.67,3.5.81,1.14,2.46.76,3.68.71,1.75-.22,1.24-2.45,1.15-3.67-1.09-1-2.82-.81-4.16-.54m7.48,0c-1.3.6-.72,2.37-.63,3.5.8,1.13,2.42.74,3.62.65,1.77,0,1.28-2.44,1.16-3.62-1-1.15-2.83-.8-4.15-.53m131.13-.17c0,1.25,0,2.5,0,3.75h3.76q0-1.87,0-3.75H1055m5.62,0c0,1.23,0,2.48,0,3.72l3.75,0c0-1.26,0-2.51,0-3.76-1.26,0-2.51,0-3.75,0m42.5,1.86c0,1.66,0,3.32,0,5h5v-5h-5m-276.25,1.87c0,1.25,0,2.5,0,3.75h3.74c0-1.25,0-2.5,0-3.73-1.26,0-2.51,0-3.76,0m241.26,0c0,1.87,0,3.75,0,5.63h5.62c0-1.88,0-3.75,0-5.62h-5.63m-339.94.76c-1.33,1.09-1.15,4.58,1.15,4.29,1,0,2.41.24,3.06-.78a7.76,7.76,0,0,0,0-3c-1.07-1.11-2.85-.76-4.21-.55m7.53,0a2.93,2.93,0,0,0,0,4.13c1.34.15,3.23.64,4.18-.62a7.46,7.46,0,0,0,0-2.94c-1-1.15-2.83-.77-4.18-.57m6.89,0c-1.11.68-1.24,3.33,0,4.05,1.33.27,3.06.53,4.16-.52a7.56,7.56,0,0,0-.2-3.41,6.79,6.79,0,0,0-4-.12M90.65,660v3.67l3.68,0c0-1.23,0-2.46,0-3.68h-3.7m5.63,0c0,1.23,0,2.46,0,3.7H100c0-1.23,0-2.45,0-3.67-1.24,0-2.47,0-3.71,0M1055,660q0,1.86,0,3.75h3.75c0-1.26,0-2.51,0-3.76H1055m5.62,0c0,1.24,0,2.49,0,3.74h3.75c0-1.25,0-2.5,0-3.75l-3.75,0m-144.28.78c-1.2.78-1.11,3.23,0,4.08,1.33.18,3.18.62,4.16-.6.15-1.16.46-2.7-.58-3.53a7.43,7.43,0,0,0-3.6,0m7.56,0c-1.33.72-1.08,3.1-.11,4.09,1.37.17,3.15.54,4.24-.55a7.19,7.19,0,0,0,0-3c-.86-1.3-2.8-.8-4.09-.58m179.23,3c0,1.66,0,3.33,0,5h5c0-1.67,0-3.34,0-5h-5m-374.91,1.4a2.88,2.88,0,0,0,0,4.11c1.35.21,3.1.52,4.2-.54.1-1.19.44-2.72-.58-3.59a8,8,0,0,0-3.62,0m7.54.07c-1.31.54-.72,2.35-.67,3.46,1,1.17,2.84.75,4.2.57,1.35-1,.35-3,.39-4.4a26.82,26.82,0,0,0-3.92.37m6.14-.12c.21,1.34-.52,3.16.68,4.15,1.88.56,5,.39,4.34-2.39.15-2.77-3.32-1.6-5-1.76m-651.25.58v3.66c1.23,0,2.46,0,3.68,0v-3.72l-3.68,0m5.64,0c0,1.22,0,2.45,0,3.69H100c0-1.24,0-2.46,0-3.69Z"/></svg>